<svg width="16" height="26" viewBox="0 0 16 26" fill="none" xmlns="http://www.w3.org/2000/svg">
<path fill-rule="evenodd" clip-rule="evenodd" d="M8 0.0936276C8.23572 0.0936276 8.46178 0.1911 8.62845 0.364603C8.79513 0.538106 8.88877 0.773426 8.88877 1.0188L8.88876 22.8398L14.4809 17.0168C14.6478 16.8431 14.8741 16.7455 15.1101 16.7455C15.3461 16.7455 15.5725 16.8431 15.7394 17.0168C15.9062 17.1905 16 17.4262 16 17.6718C16 17.9175 15.9062 18.1531 15.7394 18.3269L8.62925 25.7282C8.54669 25.8144 8.44861 25.8827 8.34063 25.9294C8.23266 25.976 8.1169 26 8 26C7.8831 26 7.76734 25.976 7.65937 25.9294C7.55139 25.8827 7.45331 25.8144 7.37076 25.7282L0.260642 18.3269C0.0937559 18.1531 1.1589e-06 17.9175 1.16922e-06 17.6718C1.17953e-06 17.4262 0.093756 17.1905 0.260642 17.0168C0.427529 16.8431 0.653875 16.7455 0.889888 16.7455C1.1259 16.7455 1.35225 16.8431 1.51913 17.0168L7.11124 22.8398L7.11124 1.0188C7.11124 0.773426 7.20487 0.538106 7.37155 0.364603C7.53823 0.1911 7.76429 0.0936276 8 0.0936276Z" fill="white" fill-opacity="0.6"/>
</svg>
